<?xml version="1.0" encoding="UTF-8" standalone="no"?>
<svg
   viewBox="53.361 132.587 216.99999 44.999998"
   version="1.1"
   id="svg1"
   width="217"
   height="45"
   xmlns="http://www.w3.org/2000/svg"
   xmlns:svg="http://www.w3.org/2000/svg">
  <defs
     id="defs1" />
  <g
     id="text1"
     style="font-weight:900;font-size:50.6667px;font-family:Fraunces;-inkscape-font-specification:'Fraunces Heavy';fill:#1a2b4a"
     aria-label="instructd.">
    <path
       style="font-weight:bold;font-family:'DM Sans';-inkscape-font-specification:'DM Sans'"
       d="m 55.108892,173.28754 v -25.13069 h 6.840004 v 25.13069 z m 3.445335,-28.32269 q -1.874667,0 -3.090668,-1.064 -1.165334,-1.11467 -1.165334,-2.78667 0,-1.672 1.165334,-2.78667 1.216001,-1.11466 3.090668,-1.11466 1.874668,0 3.040002,1.11466 1.165334,1.11467 1.165334,2.78667 0,1.62134 -1.165334,2.736 -1.165334,1.11467 -3.040002,1.11467 z m 8.25866,28.32269 v -25.13069 h 5.82667 l 0.608,4.10401 h 0.202667 q 1.216001,-2.22934 3.293335,-3.44534 2.077335,-1.26667 5.21867,-1.26667 3.141336,0 5.320004,1.368 2.178668,1.31734 3.293335,3.90134 1.165334,2.584 1.165334,6.384 v 14.08535 h -6.840004 v -13.47735 q 0,-3.14133 -1.266668,-4.81333 -1.266667,-1.672 -4.002669,-1.672 -1.722667,0 -3.090668,0.86133 -1.368001,0.81067 -2.128002,2.38134 -0.76,1.52 -0.76,3.74933 v 12.97068 z m 39.266663,0.608 q -3.344,0 -5.928,-1.11467 -2.533338,-1.11467 -4.104005,-3.04 -1.520001,-1.976 -1.773335,-4.45867 h 6.84 q 0.20267,0.912 0.81067,1.72267 0.608,0.81066 1.62134,1.31733 1.064,0.456 2.432,0.456 1.41867,0 2.28,-0.35467 0.86133,-0.40533 1.26667,-1.01333 0.456,-0.608 0.456,-1.31733 0,-0.96267 -0.65867,-1.46934 -0.608,-0.55733 -1.824,-0.96267 -1.16534,-0.40533 -2.78667,-0.86133 -1.672,-0.456 -3.39467,-0.96267 -1.672,-0.50666 -3.090667,-1.26666 -1.418668,-0.81067 -2.280002,-2.02667 -0.810667,-1.26667 -0.810667,-3.14134 0,-2.17867 1.216001,-3.952 1.216001,-1.77333 3.496002,-2.83734 2.330673,-1.064 5.522673,-1.064 4.56,0 7.24534,2.07734 2.736,2.07733 3.192,5.72534 h -6.43467 q -0.25334,-1.26667 -1.31734,-1.97601 -1.01333,-0.70933 -2.68533,-0.70933 -1.77334,0 -2.736,0.70933 -0.91201,0.65867 -0.91201,1.62134 0,0.70933 0.60801,1.216 0.608,0.456 1.77333,0.86133 1.216,0.35467 2.888,0.81067 2.68534,0.70933 4.91467,1.52 2.22934,0.81067 3.54667,2.22934 1.31733,1.368 1.31733,3.90133 0.0507,2.432 -1.26666,4.30667 -1.31734,1.87467 -3.69867,2.98934 -2.38134,1.064 -5.72534,1.064 z m 24.42313,-0.608 q -2.68534,0 -4.71201,-0.81067 -1.976,-0.86133 -3.09067,-2.78667 -1.11466,-1.976 -1.11466,-5.37067 v -10.69067 h -4.30667 v -5.47201 h 4.30667 l 0.76,-6.84 h 6.08 v 6.84 h 6.688 v 5.47201 h -6.688 v 10.792 q 0,1.82401 0.76,2.53334 0.76,0.65867 2.584,0.65867 h 3.192 v 5.67467 z m 6.89064,0 v -25.13069 h 5.82667 l 0.608,5.52267 h 0.20267 q 1.11466,-2.68533 2.432,-3.952 1.31733,-1.31733 2.98933,-1.72267 1.72267,-0.456 3.85067,-0.456 v 7.24534 h -1.87467 q -1.72266,0 -3.09067,0.40534 -1.31733,0.35466 -2.22933,1.216 -0.912,0.81066 -1.41867,2.17866 -0.456,1.368 -0.456,3.29334 v 11.40001 z m 27.71465,0.608 q -3.09067,0 -5.26934,-1.31734 -2.17867,-1.31733 -3.344,-3.90133 -1.16534,-2.63467 -1.16534,-6.43467 v -14.08535 h 6.78934 v 13.47735 q 0,3.14133 1.26667,4.81333 1.31733,1.672 4.05333,1.672 1.77334,0 3.09067,-0.81066 1.368,-0.86134 2.128,-2.43201 0.76,-1.57066 0.76,-3.74933 v -12.97068 h 6.84001 v 25.13069 h -5.82667 l -0.608,-4.00267 h -0.20267 q -1.16533,2.128 -3.29334,3.39467 -2.07733,1.216 -5.21866,1.216 z m 31.66665,0 q -4.00267,0 -6.992,-1.672 -2.93867,-1.72267 -4.61067,-4.66134 -1.62134,-2.98934 -1.62134,-6.84 0,-3.85067 1.67201,-6.78934 1.672,-2.98934 4.66133,-4.66134 2.98934,-1.72267 6.89067,-1.72267 4.86401,0 8.15734,2.53334 3.344,2.53333 4.256,6.992 h -7.24533 q -0.40534,-1.824 -1.87467,-2.83733 -1.41867,-1.01334 -3.344,-1.01334 -1.77334,0 -3.19201,0.912 -1.368,0.86134 -2.17866,2.53334 -0.81067,1.672 -0.81067,4.05334 0,1.72266 0.456,3.09066 0.456,1.368 1.26667,2.33067 0.81066,0.96267 1.92533,1.46934 1.16534,0.456 2.53334,0.456 1.31733,0 2.38133,-0.40534 1.064,-0.456 1.824,-1.26666 0.76,-0.86134 1.01334,-2.02667 h 7.24533 q -0.912,4.35733 -4.256,6.94134 -3.29333,2.584 -8.15734,2.584 z m 27.15734,-0.608 q -2.68534,0 -4.712,-0.81067 -1.97601,-0.86133 -3.09067,-2.78667 -1.11467,-1.976 -1.11467,-5.37067 v -10.69067 h -4.30667 v -5.47201 h 4.30667 l 0.76,-6.84 h 6.08 v 6.84 h 6.68801 v 5.47201 h -6.68801 v 10.792 q 0,1.82401 0.76,2.53334 0.76,0.65867 2.58401,0.65867 h 3.192 v 5.67467 z m 17.23542,0.608 q -3.54667,0 -6.18134,-1.672 -2.63467,-1.72267 -4.104,-4.71201 -1.46933,-2.98933 -1.46933,-6.78933 0,-3.80001 1.46933,-6.78934 1.46933,-2.98934 4.15467,-4.66134 2.68533,-1.72267 6.384,-1.72267 2.93867,0 5.06667,1.16534 2.17867,1.11467 3.44534,2.68533 v -13.57867 h 6.84 v 35.46669 h -5.776 l -0.35467,-4.40801 h -0.20266 q -0.96267,1.57067 -2.33067,2.68534 -1.368,1.11467 -3.09067,1.72267 -1.72267,0.608 -3.85067,0.608 z m 2.02667,-5.62401 q 2.07733,0 3.59733,-0.96266 1.57067,-0.96267 2.38134,-2.63467 0.86133,-1.72267 0.86133,-4.00267 0,-2.22934 -0.86133,-3.90134 -0.81067,-1.72266 -2.38134,-2.68533 -1.57066,-0.96267 -3.648,-0.96267 -2.02667,0 -3.59733,0.96267 -1.52001,0.96267 -2.38134,2.68533 -0.81067,1.672 -0.81067,3.90134 0,2.28 0.81067,4.00267 0.86133,1.672 2.38134,2.63467 1.57066,0.96266 3.648,0.96266 z"
       id="path1" />
    <path
       style="font-weight:bold;font-family:'DM Sans';-inkscape-font-specification:'DM Sans';fill:#4f7df3"
       d="m 265.03143,173.54087 q -1.87467,0 -3.04,-1.11467 -1.16533,-1.16533 -1.16533,-2.78667 0,-1.672 1.16533,-2.78666 1.16533,-1.16534 3.04,-1.16534 1.824,0 2.98934,1.16534 1.16533,1.11466 1.16533,2.78666 0,1.62134 -1.16533,2.78667 -1.16534,1.11467 -2.98934,1.11467 z"
       id="path2" />
  </g>
</svg>
